<svg id="visual" viewBox="0 0 900 600" width="900" height="600" xmlns="http://www.w3.org/2000/svg" xmlns:xlink="http://www.w3.org/1999/xlink" version="1.1"><rect x="0" y="0" width="900" height="600" fill="#FFFFFF"></rect><defs><linearGradient id="grad1_0" x1="33.3%" y1="100%" x2="100%" y2="0%"><stop offset="20%" stop-color="#ffffff" stop-opacity="1"></stop><stop offset="80%" stop-color="#ffffff" stop-opacity="1"></stop></linearGradient></defs><defs><linearGradient id="grad2_0" x1="0%" y1="100%" x2="66.7%" y2="0%"><stop offset="20%" stop-color="#ffffff" stop-opacity="1"></stop><stop offset="80%" stop-color="#ffffff" stop-opacity="1"></stop></linearGradient></defs><g transform="translate(900, 600)"><path d="M-216.3 0C-210.8 -27.1 -205.2 -54.1 -195.9 -81.1C-186.5 -108.2 -173.4 -135.1 -153 -153C-132.5 -170.8 -104.8 -179.4 -78.1 -188.5C-51.4 -197.5 -25.7 -206.9 0 -216.3L0 0Z" fill="#c8a177"></path></g><g transform="translate(0, 0)"><path d="M216.3 0C202.3 23.4 188.2 46.8 180.2 74.6C172.1 102.4 170 134.7 153 153C136 171.3 104.1 175.6 76.2 183.9C48.2 192.1 24.1 204.2 0 216.3L0 0Z" fill="#c8a177"></path></g></svg>