<svg width="266" height="703" viewBox="0 0 266 703" fill="none" xmlns="http://www.w3.org/2000/svg">
<path d="M265 132C265 114.666 261.586 97.5008 254.952 81.4858C248.318 65.4708 238.595 50.9192 226.338 38.6619C214.081 26.4046 199.529 16.6815 183.514 10.0479C167.499 3.41428 150.334 -7.57714e-07 133 0C115.666 7.57715e-07 98.5008 3.41428 82.4858 10.0479C66.4708 16.6815 51.9192 26.4046 39.6619 38.6619C27.4046 50.9192 17.6815 65.4708 11.0479 81.4858C4.41428 97.5008 0.999998 114.666 1 132L133 132H265Z" fill="black"/>
<path d="M1 701.5V132H265V691.5L138 564.5L1 701.5Z" fill="black" stroke="black"/>
</svg>
