<svg id="visual" viewBox="0 0 900 600" width="900" height="600" xmlns="http://www.w3.org/2000/svg" xmlns:xlink="http://www.w3.org/1999/xlink" version="1.1"><path d="M0 423L21.5 434.7C43 446.3 86 469.7 128.8 486C171.7 502.3 214.3 511.7 257.2 518.7C300 525.7 343 530.3 385.8 530C428.7 529.7 471.3 524.3 514.2 511.7C557 499 600 479 642.8 468.3C685.7 457.7 728.3 456.3 771.2 458.8C814 461.3 857 467.7 878.5 470.8L900 474L900 601L878.5 601C857 601 814 601 771.2 601C728.3 601 685.7 601 642.8 601C600 601 557 601 514.2 601C471.3 601 428.7 601 385.8 601C343 601 300 601 257.2 601C214.3 601 171.7 601 128.8 601C86 601 43 601 21.5 601L0 601Z" fill="#c8a177" stroke-linecap="round" stroke-linejoin="miter"></path></svg>