<svg id="visual" viewBox="0 0 900 600" width="900" height="600" xmlns="http://www.w3.org/2000/svg" xmlns:xlink="http://www.w3.org/1999/xlink" version="1.1"><path d="M0 109L75 108C150 107 300 105 450 105C600 105 750 107 825 108L900 109L900 0L825 0C750 0 600 0 450 0C300 0 150 0 75 0L0 0Z" fill="#eee2cd"></path><path d="M0 229L75 236C150 243 300 257 450 258C600 259 750 247 825 241L900 235L900 107L825 106C750 105 600 103 450 103C300 103 150 105 75 106L0 107Z" fill="#f1e8d7"></path><path d="M0 325L75 328C150 331 300 337 450 332C600 327 750 311 825 303L900 295L900 233L825 239C750 245 600 257 450 256C300 255 150 241 75 234L0 227Z" fill="#f4ede0"></path><path d="M0 385L75 385C150 385 300 385 450 380C600 375 750 365 825 360L900 355L900 293L825 301C750 309 600 325 450 330C300 335 150 329 75 326L0 323Z" fill="#f7f1e7"></path><path d="M0 427L75 429C150 431 300 435 450 431C600 427 750 415 825 409L900 403L900 353L825 358C750 363 600 373 450 378C300 383 150 383 75 383L0 383Z" fill="#f8f3ea"></path><path d="M0 601L75 601C150 601 300 601 450 601C600 601 750 601 825 601L900 601L900 401L825 407C750 413 600 425 450 429C300 433 150 429 75 427L0 425Z" fill="#f9f5ee"></path></svg>