<svg id="visual" viewBox="0 0 900 600" width="900" height="600" xmlns="http://www.w3.org/2000/svg" xmlns:xlink="http://www.w3.org/1999/xlink" version="1.1"><rect x="0" y="0" width="900" height="600" fill="#c8a177"></rect><defs><linearGradient id="grad1_0" x1="33.3%" y1="0%" x2="100%" y2="100%"><stop offset="20%" stop-color="#c8a177" stop-opacity="1"></stop><stop offset="80%" stop-color="#c8a177" stop-opacity="1"></stop></linearGradient></defs><defs><linearGradient id="grad2_0" x1="0%" y1="0%" x2="66.7%" y2="100%"><stop offset="20%" stop-color="#c8a177" stop-opacity="1"></stop><stop offset="80%" stop-color="#c8a177" stop-opacity="1"></stop></linearGradient></defs><g transform="translate(900, 0)"><path d="M0 486.7C-55.8 449.8 -111.6 412.8 -157.7 380.6C-203.7 348.5 -240 321.1 -292.7 292.7C-345.5 264.4 -414.6 235.2 -449.7 186.3C-484.8 137.3 -485.8 68.7 -486.7 0L0 0Z" fill="#fdfeff"></path></g><g transform="translate(0, 600)"><path d="M0 -486.7C44.7 -437.2 89.3 -387.6 154.2 -372.3C219.1 -357 304.2 -376 344.2 -344.2C384.2 -312.3 379.2 -229.6 395.4 -163.8C411.7 -97.9 449.2 -49 486.7 0L0 0Z" fill="#fdfeff"></path></g></svg>