<?xml version="1.0" encoding="UTF-8"?>
<svg class="animated" version="1.1" viewBox="0 0 700 500" xmlns="http://www.w3.org/2000/svg" >
<g class="animable" style="transform-origin:343.839px 244.534px">
<path class="animable" d="M622,435s31-64,31-127c0-66.26-23.35-135.34-94.25-155.24-18.24-5.11-37.18-6.52-55.87-9.13-28.92-4-49.77-15.17-72.43-32.86C350.37,48.26,173.8,9.33,151,149c-8,49-6,71-59,113S33,350,35,372s33,62,33,62Z" fill="#9abd3f" style="transform-origin:343.839px 244.534px"/>
<path class="animable" d="M622,435s31-64,31-127c0-66.26-23.35-135.34-94.25-155.24-18.24-5.11-37.18-6.52-55.87-9.13-28.92-4-49.77-15.17-72.43-32.86C350.37,48.26,173.8,9.33,151,149c-8,49-6,71-59,113S33,350,35,372s33,62,33,62Z" fill="#fff" opacity=".7" style="transform-origin:343.839px 244.534px"/>
</g>
<g class="animable" style="transform-origin:361px 239.395px">
<rect class="animable" x="408" y="192.29" width="42" height="17" opacity=".2" style="transform-origin:429px 200.79px"/>
<rect class="animable" x="392" y="131.79" width="42" height="17" opacity=".2" style="transform-origin:413px 140.29px"/>
<rect class="animable" x="240" y="191.79" width="42" height="17" opacity=".2" style="transform-origin:261px 200.29px"/>
<rect class="animable" x="301" y="73.5" width="42" height="17" opacity=".2" style="transform-origin:322px 82px"/>
<rect class="animable" x="347" y="73.5" width="42" height="17" opacity=".2" style="transform-origin:368px 82px"/>
<rect class="animable" x="168" y="317.5" width="42" height="17" opacity=".2" style="transform-origin:189px 326px"/>
<rect class="animable" x="146" y="338.5" width="42" height="17" opacity=".2" style="transform-origin:167px 347px"/>
<rect class="animable" x="369" y="155.29" width="42" height="17" opacity=".1" style="transform-origin:390px 163.79px"/>
<rect class="animable" x="432" y="250.79" width="42" height="17" opacity=".1" style="transform-origin:453px 259.29px"/>
<rect class="animable" x="186" y="276.79" width="42" height="17" opacity=".1" style="transform-origin:207px 285.29px"/>
<rect class="animable" x="234" y="276.79" width="42" height="17" opacity=".1" style="transform-origin:255px 285.29px"/>
<rect class="animable" x="238" y="252.79" width="42" height="17" opacity=".1" style="transform-origin:259px 261.29px"/>
<rect class="animable" x="417" y="155.29" width="42" height="17" opacity=".1" style="transform-origin:438px 163.79px"/>
<rect class="animable" x="292" y="336.79" width="42" height="17" opacity=".2" style="transform-origin:313px 345.29px"/>
<rect class="animable" x="269" y="360.29" width="42" height="17" opacity=".1" style="transform-origin:290px 368.79px"/>
<rect class="animable" x="317" y="360.29" width="42" height="17" opacity=".1" style="transform-origin:338px 368.79px"/>
<rect class="animable" x="581" y="336.79" width="42" height="17" opacity=".2" style="transform-origin:602px 345.29px"/>
<rect class="animable" x="558" y="360.29" width="42" height="17" opacity=".1" style="transform-origin:579px 368.79px"/>
<rect class="animable" x="606" y="360.29" width="42" height="17" opacity=".1" style="transform-origin:627px 368.79px"/>
<rect class="animable" x="405" y="385.79" width="42" height="17" opacity=".2" style="transform-origin:426px 394.29px"/>
<rect class="animable" x="72" y="251.79" width="42" height="17" opacity=".2" style="transform-origin:93px 260.29px"/>
<rect class="animable" x="382" y="409.29" width="42" height="17" opacity=".1" style="transform-origin:403px 417.79px"/>
<rect class="animable" x="430" y="409.29" width="42" height="17" opacity=".1" style="transform-origin:451px 417.79px"/>
<rect class="animable" x="258" y="170.5" width="42" height="17" opacity=".1" style="transform-origin:279px 179px"/>
<rect class="animable" x="195" y="337.5" width="42" height="17" opacity=".1" style="transform-origin:216px 346px"/>
<rect class="animable" x="325" y="52.5" width="42" height="17" opacity=".1" style="transform-origin:346px 61px"/>
<rect class="animable" x="48" y="195.5" width="42" height="17" opacity=".2" style="transform-origin:69px 204px"/>
<rect class="animable" x="72" y="174.5" width="42" height="17" opacity=".1" style="transform-origin:93px 183px"/>
<rect class="animable" x="179" y="72.29" width="42" height="17" opacity=".1" style="transform-origin:200px 80.79px"/>
<rect class="animable" x="325" y="192.29" width="42" height="17" opacity=".2" style="transform-origin:346px 200.79px"/>
<rect class="animable" x="547" y="191.79" width="42" height="17" opacity=".2" style="transform-origin:568px 200.29px"/>
<rect class="animable" x="493" y="276.79" width="42" height="17" opacity=".1" style="transform-origin:514px 285.29px"/>
<rect class="animable" x="541" y="276.79" width="42" height="17" opacity=".1" style="transform-origin:562px 285.29px"/>
<rect class="animable" x="545" y="252.79" width="42" height="17" opacity=".1" style="transform-origin:566px 261.29px"/>
<rect class="animable" x="565" y="170.5" width="42" height="17" opacity=".1" style="transform-origin:586px 179px"/>
<rect class="animable" x="632" y="192.29" width="42" height="17" opacity=".2" style="transform-origin:653px 200.79px"/>
</g>
<g class="animable" style="transform-origin:344.175px 356.316px">
<ellipse class="animable" cx="99.29" cy="327.92" rx="12.66" ry="33.22" fill="#263238" style="transform-origin:99.29px 327.92px"/>
<ellipse class="animable" cx="128.82" cy="304.31" rx="23.67" ry="10.3" fill="#263238" style="transform-origin:128.82px 304.31px;transform:rotate(-72.37deg)"/>
<ellipse class="animable" cx="47.44" cy="372.41" rx="10.3" ry="23.67" fill="#263238" style="transform-origin:47.44px 372.41px;transform:rotate(-80.38deg)"/>
<ellipse class="animable" cx="141.65" cy="342.87" rx="27.46" ry="12.66" fill="#263238" style="transform-origin:141.65px 342.87px;transform:rotate(-44.76deg)"/>
<ellipse class="animable" cx="64.45" cy="330.79" rx="14.48" ry="33.22" fill="#263238" style="transform-origin:64.45px 330.79px;transform:rotate(-34.58deg)"/>
<line class="animable" x1="100.18" x2="101.16" y1="359.48" y2="405.16" fill="none" stroke="#263238" stroke-linecap="round" stroke-miterlimit="10" stroke-width="2px" style="transform-origin:100.67px 382.32px"/>
<line class="animable" x1="99" x2="100.18" y1="315.57" y2="359.48" fill="none" stroke="#8c8c8c" stroke-linecap="round" stroke-miterlimit="10" stroke-width="2px" style="transform-origin:99.59px 337.525px"/>
<line class="animable" x1="99.09" x2="99" y1="308.4" y2="311.77" fill="none" stroke="#8c8c8c" stroke-linecap="round" stroke-miterlimit="10" stroke-width="2px" style="transform-origin:99.045px 310.085px"/>
<path class="animable" d="m83.25 356a127.58 127.58 0 0 1 12.51 47.93" fill="none" stroke="#263238" stroke-linecap="round" stroke-miterlimit="10" stroke-width="2px" style="transform-origin:89.505px 379.965px"/>
<path class="animable" d="M61.5,322.7A150.37,150.37,0,0,1,83.25,356" fill="none" stroke="#8c8c8c" stroke-linecap="round" stroke-miterlimit="10" stroke-width="2px" style="transform-origin:72.375px 339.35px"/>
<path class="animable" d="m54.65 315.46s1.32 1.2 3.48 3.5" fill="none" stroke="#8c8c8c" stroke-linecap="round" stroke-miterlimit="10" stroke-width="2px" style="transform-origin:56.39px 317.21px"/>
<path class="animable" d="m122.94 360.67a149.94 149.94 0 0 0-20.53 40.75" fill="none" stroke="#263238" stroke-linecap="round" stroke-miterlimit="10" stroke-width="2px" style="transform-origin:112.675px 381.045px"/>
<path class="animable" d="m137.51 343.93a120.1 120.1 0 0 0-14.57 16.74" fill="none" stroke="#8c8c8c" stroke-linecap="round" stroke-miterlimit="10" stroke-width="2px" style="transform-origin:130.225px 352.3px"/>
<path class="animable" d="m153.07 332.07a66.84 66.84 0 0 0-11.1 7.86" fill="none" stroke="#8c8c8c" stroke-linecap="round" stroke-miterlimit="10" stroke-width="2px" style="transform-origin:147.52px 336px"/>
<path class="animable" d="m122.41 323.79c-7 22.08-16.44 54.71-20.83 83" fill="none" stroke="#263238" stroke-linecap="round" stroke-miterlimit="10" stroke-width="2px" style="transform-origin:111.995px 365.29px"/>
<path class="animable" d="m126.68 310.69c-1.25 3.73-2.7 8.15-4.27 13.1" fill="none" stroke="#8c8c8c" stroke-linecap="round" stroke-miterlimit="10" stroke-width="2px" style="transform-origin:124.545px 317.24px"/>
<path class="animable" d="m131.06 298s-1.23 3.38-3.2 9.18" fill="none" stroke="#8c8c8c" stroke-linecap="round" stroke-miterlimit="10" stroke-width="2px" style="transform-origin:129.46px 302.59px"/>
<path class="animable" d="m70.13 373.31c8.76 3.32 17.32 9.73 21.48 21.88" fill="none" stroke="#263238" stroke-linecap="round" stroke-miterlimit="10" stroke-width="2px" style="transform-origin:80.87px 384.25px"/>
<path class="animable" d="m53.94 370a55.08 55.08 0 0 1 16.19 3.29" fill="none" stroke="#8c8c8c" stroke-linecap="round" stroke-miterlimit="10" stroke-width="2px" style="transform-origin:62.035px 371.645px"/>
<path class="animable" d="M43.44,370.28s1.56-.23,4.14-.33" fill="none" stroke="#8c8c8c" stroke-linecap="round" stroke-miterlimit="10" stroke-width="2px" style="transform-origin:45.51px 370.115px"/>
<ellipse class="animable" cx="154.31" cy="372.41" rx="23.67" ry="10.3" fill="#263238" style="transform-origin:154.31px 372.41px;transform:rotate(-9.62deg)"/>
<path class="animable" d="m131.9 373.2c-8.86 3.3-17.56 9.72-21.76 22" fill="none" stroke="#263238" stroke-linecap="round" stroke-miterlimit="10" stroke-width="2px" style="transform-origin:121.02px 384.2px"/>
<path class="animable" d="m149.17 370a56.46 56.46 0 0 0-17.27 3.25" fill="none" stroke="#8c8c8c" stroke-linecap="round" stroke-miterlimit="10" stroke-width="2px" style="transform-origin:140.535px 371.625px"/>
<path class="animable" d="M158.3,370.28s-1-.15-2.79-.26" fill="none" stroke="#8c8c8c" stroke-linecap="round" stroke-miterlimit="10" stroke-width="2px" style="transform-origin:156.905px 370.15px"/>
<path class="animable" d="M131.71,434a61.47,61.47,0,0,0,6-26.15,53.93,53.93,0,0,0-2.39-16H67.85a53.61,53.61,0,0,0-2.4,16,61.47,61.47,0,0,0,6,26.15Z" fill="#263238" style="transform-origin:101.58px 412.925px"/>
<path class="animable" d="M66.12,399.34c-.2,1.23-.35,2.48-.46,3.74h71.83c-.11-1.26-.26-2.51-.45-3.74Z" fill="#7a7a7a" style="transform-origin:101.575px 401.21px"/>
<path class="animable" d="M136.72,418.44c.23-1.24.42-2.48.57-3.73H65.86c.15,1.25.34,2.49.57,3.73Z" fill="#7a7a7a" style="transform-origin:101.575px 416.575px"/>
<path class="animable" d="m74.17 408.06a2.91 2.91 0 1 1-2.91-2.9 2.91 2.91 0 0 1 2.91 2.9z" fill="#8c8c8c" style="transform-origin:71.26px 408.07px"/>
<path class="animable" d="m88.7 408.06a2.91 2.91 0 1 1-2.9-2.9 2.9 2.9 0 0 1 2.9 2.9z" fill="#8c8c8c" style="transform-origin:85.79px 408.07px"/>
<path class="animable" d="m103.24 408.06a2.91 2.91 0 1 1-2.91-2.9 2.91 2.91 0 0 1 2.91 2.9z" fill="#8c8c8c" style="transform-origin:100.33px 408.07px"/>
<path class="animable" d="m117.77 408.06a2.91 2.91 0 1 1-2.91-2.9 2.91 2.91 0 0 1 2.91 2.9z" fill="#8c8c8c" style="transform-origin:114.86px 408.07px"/>
<path class="animable" d="m132.3 408.06a2.91 2.91 0 1 1-2.9-2.9 2.9 2.9 0 0 1 2.9 2.9z" fill="#8c8c8c" style="transform-origin:129.39px 408.07px"/>
<ellipse class="animable" cx="585.9" cy="327.92" rx="12.66" ry="33.22" fill="#263238" style="transform-origin:585.9px 327.92px"/>
<ellipse class="animable" cx="615.42" cy="304.31" rx="23.67" ry="10.3" fill="#263238" style="transform-origin:615.42px 304.31px;transform:rotate(-72.37deg)"/>
<ellipse class="animable" cx="534.04" cy="372.41" rx="10.3" ry="23.67" fill="#263238" style="transform-origin:534.04px 372.41px;transform:rotate(-80.38deg)"/>
<ellipse class="animable" cx="628.25" cy="342.87" rx="27.46" ry="12.66" fill="#263238" style="transform-origin:628.25px 342.87px;transform:rotate(-44.76deg)"/>
<ellipse class="animable" cx="551.05" cy="330.79" rx="14.48" ry="33.22" fill="#263238" style="transform-origin:551.05px 330.79px;transform:rotate(-34.58deg)"/>
<line class="animable" x1="586.78" x2="587.76" y1="359.48" y2="405.16" fill="none" stroke="#263238" stroke-linecap="round" stroke-miterlimit="10" stroke-width="2px" style="transform-origin:587.27px 382.32px"/>
<line class="animable" x1="585.6" x2="586.78" y1="315.57" y2="359.48" fill="none" stroke="#8c8c8c" stroke-linecap="round" stroke-miterlimit="10" stroke-width="2px" style="transform-origin:586.19px 337.525px"/>
<line class="animable" x1="585.69" x2="585.6" y1="308.4" y2="311.77" fill="none" stroke="#8c8c8c" stroke-linecap="round" stroke-miterlimit="10" stroke-width="2px" style="transform-origin:585.645px 310.085px"/>
<path class="animable" d="m569.86 356a127.58 127.58 0 0 1 12.51 47.93" fill="none" stroke="#263238" stroke-linecap="round" stroke-miterlimit="10" stroke-width="2px" style="transform-origin:576.115px 379.965px"/>
<path class="animable" d="m548.1 322.7a150.34 150.34 0 0 1 21.76 33.3" fill="none" stroke="#8c8c8c" stroke-linecap="round" stroke-miterlimit="10" stroke-width="2px" style="transform-origin:558.98px 339.35px"/>
<path class="animable" d="m541.26 315.46s1.31 1.2 3.47 3.5" fill="none" stroke="#8c8c8c" stroke-linecap="round" stroke-miterlimit="10" stroke-width="2px" style="transform-origin:542.995px 317.21px"/>
<path class="animable" d="M609.54,360.67A149.94,149.94,0,0,0,589,401.42" fill="none" stroke="#263238" stroke-linecap="round" stroke-miterlimit="10" stroke-width="2px" style="transform-origin:599.27px 381.045px"/>
<path class="animable" d="m624.11 343.93a120.1 120.1 0 0 0-14.57 16.74" fill="none" stroke="#8c8c8c" stroke-linecap="round" stroke-miterlimit="10" stroke-width="2px" style="transform-origin:616.825px 352.3px"/>
<path class="animable" d="m639.67 332.07a66.84 66.84 0 0 0-11.1 7.86" fill="none" stroke="#8c8c8c" stroke-linecap="round" stroke-miterlimit="10" stroke-width="2px" style="transform-origin:634.12px 336px"/>
<path class="animable" d="m609 323.79c-7 22.08-16.44 54.71-20.83 83" fill="none" stroke="#263238" stroke-linecap="round" stroke-miterlimit="10" stroke-width="2px" style="transform-origin:598.585px 365.29px"/>
<path class="animable" d="m613.28 310.69c-1.25 3.73-2.7 8.15-4.27 13.1" fill="none" stroke="#8c8c8c" stroke-linecap="round" stroke-miterlimit="10" stroke-width="2px" style="transform-origin:611.145px 317.24px"/>
<path class="animable" d="m617.66 298s-1.23 3.38-3.2 9.18" fill="none" stroke="#8c8c8c" stroke-linecap="round" stroke-miterlimit="10" stroke-width="2px" style="transform-origin:616.06px 302.59px"/>
<path class="animable" d="m556.73 373.31c8.77 3.32 17.32 9.73 21.48 21.88" fill="none" stroke="#263238" stroke-linecap="round" stroke-miterlimit="10" stroke-width="2px" style="transform-origin:567.47px 384.25px"/>
<path class="animable" d="m540.54 370a55 55 0 0 1 16.19 3.29" fill="none" stroke="#8c8c8c" stroke-linecap="round" stroke-miterlimit="10" stroke-width="2px" style="transform-origin:548.635px 371.645px"/>
<path class="animable" d="M530.05,370.28s1.56-.23,4.13-.33" fill="none" stroke="#8c8c8c" stroke-linecap="round" stroke-miterlimit="10" stroke-width="2px" style="transform-origin:532.115px 370.115px"/>
<ellipse class="animable" cx="640.91" cy="372.41" rx="23.67" ry="10.3" fill="#263238" style="transform-origin:640.91px 372.41px;transform:rotate(-9.62deg)"/>
<path class="animable" d="m618.5 373.2c-8.86 3.3-17.56 9.72-21.76 22" fill="none" stroke="#263238" stroke-linecap="round" stroke-miterlimit="10" stroke-width="2px" style="transform-origin:607.62px 384.2px"/>
<path class="animable" d="m635.77 370a56.46 56.46 0 0 0-17.27 3.25" fill="none" stroke="#8c8c8c" stroke-linecap="round" stroke-miterlimit="10" stroke-width="2px" style="transform-origin:627.135px 371.625px"/>
<path class="animable" d="M644.91,370.28s-1-.15-2.79-.26" fill="none" stroke="#8c8c8c" stroke-linecap="round" stroke-miterlimit="10" stroke-width="2px" style="transform-origin:643.515px 370.15px"/>
<path class="animable" d="M618.32,434a61.46,61.46,0,0,0,6-26.15,53.93,53.93,0,0,0-2.39-16H554.45a53.93,53.93,0,0,0-2.4,16A61.47,61.47,0,0,0,558,434Z" fill="#263238" style="transform-origin:588.185px 412.925px"/>
<path class="animable" d="M552.72,399.34c-.19,1.23-.34,2.48-.45,3.74h71.82c-.11-1.26-.26-2.51-.45-3.74Z" fill="#7a7a7a" style="transform-origin:588.18px 401.21px"/>
<path class="animable" d="M623.33,418.44c.22-1.24.42-2.48.57-3.73H552.46c.15,1.25.35,2.49.57,3.73Z" fill="#7a7a7a" style="transform-origin:588.18px 416.575px"/>
<path class="animable" d="m560.77 408.06a2.91 2.91 0 1 1-2.9-2.9 2.9 2.9 0 0 1 2.9 2.9z" fill="#8c8c8c" style="transform-origin:557.86px 408.07px"/>
<path class="animable" d="m575.31 408.06a2.91 2.91 0 1 1-2.91-2.9 2.91 2.91 0 0 1 2.91 2.9z" fill="#8c8c8c" style="transform-origin:572.4px 408.07px"/>
<path class="animable" d="m589.84 408.06a2.91 2.91 0 1 1-2.91-2.9 2.91 2.91 0 0 1 2.91 2.9z" fill="#8c8c8c" style="transform-origin:586.93px 408.07px"/>
<path class="animable" d="m604.37 408.06a2.91 2.91 0 1 1-2.9-2.9 2.9 2.9 0 0 1 2.9 2.9z" fill="#8c8c8c" style="transform-origin:601.46px 408.07px"/>
<path class="animable" d="m618.91 408.06a2.91 2.91 0 1 1-2.91-2.9 2.91 2.91 0 0 1 2.91 2.9z" fill="#8c8c8c" style="transform-origin:616px 408.07px"/>
</g>
<g class="animable" fill="none" stroke="#263238" stroke-linecap="round" stroke-linejoin="round" style="transform-origin:173.715px 167.86px">
<rect class="animable" x="125.34" y="100.72" width="96.75" height="134.28" style="transform-origin:173.715px 167.86px"/>
<rect class="animable" x="128.42" y="105" width="90.58" height="125.72" style="transform-origin:173.71px 167.86px"/>
<rect class="animable" x="157.24" y="145" width="32.94" height="45.72" style="transform-origin:173.71px 167.86px"/>
</g>
<g class="animable" stroke-linecap="round" stroke-linejoin="round" style="transform-origin:536.889px 301.755px">
<path class="animable" d="m502.27 185.93s-14.91 13.37-15.94 18-1.54 13.37-4.62 16.45-10.29 2.57-10.29 6.17 3.6 6.69 3.6 6.69 0 12.34 1 17.48 1 9.77 4.63 11.31 21.62-3.03 27.28-3.03 18-13.89 11.83-40.62-17.49-32.45-17.49-32.45z" fill="#fff" stroke="#263238" style="transform-origin:496.433px 224.139px"/>
<path class="animable" d="m488.91 218.84s5.65-2.06 7.71 2.57" fill="none" stroke="#263238" style="transform-origin:492.765px 219.897px"/>
<path class="animable" d="m490.45 210.1s4.63-1.54 7.2 3.6" fill="none" stroke="#263238" stroke-width="2px" style="transform-origin:494.05px 211.792px"/>
<path class="animable" d="m480.16 238.38s3.6 2.06 9.77 0" fill="none" stroke="#263238" style="transform-origin:485.045px 238.838px"/>
<path class="animable" d="M512,390.58c0,1.54-3.08,20.05-4.62,27.25-1.13,5.26-2.25,12.91-2.78,16.67H593c.76-10.63-6.4-56.32-6.4-79.4,0-26.22-3.08-41.13-15.94-55.53s-36-19-42.68-19-12.34,7.72-12.34,7.72-7.2.51-11.82,10.79S492,334.53,489.93,346.36s7.72,22.62,14.4,29.82S512,389,512,390.58Z" fill="#9abd3f" stroke="#263238" style="transform-origin:541.352px 357.535px"/>
<path class="animable" d="m496.1 178.73s14.4 29.27 14.9 48.34-10.29 31.36-10.29 42.68 5.14 15.42 8.74 18.51 17-4.63 21.6 0 12.34 38.56 17 46.79 14.39 14.4 29.31 13.88 22.11-20.57 22.11-28.79-10.8-13.37-5.66-24.17 12.34-17 6.17-31.88-26.23-14.91-31.37-23.09 5.65-35-7.72-53-64.27-27.26-64.79-9.27z" fill="#263238" stroke="#263238" style="transform-origin:549.229px 258.985px"/>
<path class="animable" d="M572.36,339.57a13,13,0,0,0,8.16.69" fill="none" stroke="#919191" style="transform-origin:576.44px 340.095px"/>
<path class="animable" d="M518,257.8c-1.59,7.33-2.11,13.07.2,16.4,5.66,8.18,18.25-6.29,32.09,1.89s11.32,24.54,10.06,40.27c-.68,8.61,2.4,15.71,7,20" fill="none" stroke="#919191" style="transform-origin:541.993px 297.08px"/>
<path class="animable" d="M522.53,239.58c-.78,3.24-1.59,6.36-2.34,9.31" fill="none" stroke="#919191" style="transform-origin:521.36px 244.235px"/>
<path class="animable" d="m513.83 184.24s15.1 8.81 12.58 34a139.65 139.65 0 0 1-2.52 15.46" fill="none" stroke="#919191" style="transform-origin:520.262px 208.97px"/>
<path class="animable" d="m540.47 194c4.47 6.68 8.14 15.13 7.33 24.26-1.89 21.34-10.69 40.22-3.8 42.74s40.26 6.29 40.89 20.13-6.89 20.13-3.74 30.87a17.76 17.76 0 0 0 12.58 12.58" fill="none" stroke="#919191" style="transform-origin:567.1px 259.29px"/>
<path class="animable" d="m527 179.21a61.58 61.58 0 0 1 6.17 5.74" fill="none" stroke="#919191" style="transform-origin:530.085px 182.08px"/>
<path class="animable" d="m557.24 203.74s12 17.62 6.92 31.46-15.1 19.5-7.55 25.16 37.12-2.51 40.89 12-8.81 17.61-9.43 27.05 3.77 15.1 3.77 15.1" fill="none" stroke="#919191" style="transform-origin:576.046px 259.125px"/>
<path class="animable" d="m516.38 434.5c4-8.74 16.14-35.51 18.29-39.81 2.57-5.14 4.63-24.16 4.63-24.16l-27.3 1.54-2 15.93-13.6 46.5z" fill="#fff" stroke="#263238" style="transform-origin:517.85px 402.515px"/>
<path class="animable" d="M510.79,381.76c4.67.69,16.61,1.94,27.17-1.18.83-5.35,1.34-10.05,1.34-10.05L512,372.07Z" fill="#263238" stroke="#263238" style="transform-origin:525.045px 376.564px"/>
<path class="animable" d="M520.79,290.83s-12.86-.52-17,12.34,2.05,42.16,2.05,53.47a117.38,117.38,0,0,1-1.54,19.54s20.05,4.12,40.11,0l-6.17-51.42" fill="#9abd3f" stroke="#263238" style="transform-origin:523.387px 334.419px"/>
</g>
<g class="animable" style="transform-origin:315.005px 294.999px">
<polygon class="animable" points="425.26 434.5 532.83 383.5 412.06 383.5 102.79 434.5" fill="#8f8f8f" stroke="#263238" stroke-linecap="round" stroke-linejoin="round" style="transform-origin:317.81px 409px"/>
<polygon class="animable" points="448.91 434.5 532.83 388.73 532.83 383.5 425.26 434.5" fill="#263238" stroke="#263238" stroke-linecap="round" stroke-linejoin="round" style="transform-origin:479.045px 409px"/>
<path class="animable" d="M357.5,255.5s-23,9-33,13.5S307,280,307,292s9.5,63,9.5,72-3.5,36-3.5,36l87-14.44s-6.92-18.24,8.3-36.25c10-11.84,4.41-29.4,4.41-29.4S453.5,379,461.5,378.5s10-13.5,6.5-22-25.22-46.57-29.22-53.07-6.27-20.52-18.77-32S379.5,253.5,379.5,253.5Z" fill="#9abd3f" stroke="#263238" stroke-linecap="round" stroke-linejoin="round" style="transform-origin:388.327px 326.75px"/>
<path class="animable" d="M430.33,387.9s6-.67,8.65-.67,10.32,6.32,11.32,7.65.33,2.33-.67,2.67-5-2.33-6-2.67-7.32-.66-7.32-.66" fill="#bababa" stroke="#263238" stroke-linecap="round" stroke-linejoin="round" style="transform-origin:440.562px 392.405px"/>
<path class="animable" d="M321.67,271.67S302.33,279,296.33,299,301,379,301,383.67a17.57,17.57,0,0,0,2.67,8.66s30,5.34,54.66,6,42.67,0,42.67,0,13,4.21,35.32.55c2-.33,8,2.12,8.68-.55s-7.68-11.76-13.34-11.1c-23.22,2.73-30,0-30,0s-60-12.9-65.38-14.9l-10.66-4,1.33-48" fill="#9abd3f" stroke="#263238" stroke-linecap="round" stroke-linejoin="round" style="transform-origin:369.769px 336.023px"/>
<path class="animable" d="m431.66 387.23c-23.22 2.73-30 0-30 0s-60-12.9-65.38-14.9l-10.66-4 0.94-33.95c-5-4.28-14.94-9.87-31.9-8.86 1.11 24.74 6.29 54.89 6.29 58.15a17.57 17.57 0 0 0 2.67 8.66s30 5.34 54.66 6 42.67 0 42.67 0 13 4.21 35.32 0.55c2-0.33 8 2.12 8.68-0.55s-7.63-11.76-13.29-11.1z" fill="#bababa" stroke="#263238" stroke-linecap="round" stroke-linejoin="round" style="transform-origin:369.825px 362.888px"/>
<path class="animable" d="M436.32,388.56s8.65,4.66,11,6,4.66,2.33,2.33,3-5.32-.34-7-1-9.32-4-9.32-4" fill="#bababa" stroke="#263238" stroke-linecap="round" stroke-linejoin="round" style="transform-origin:441.974px 393.17px"/>
<path class="animable" d="M431,390.56a12.73,12.73,0,0,1,5.32,2c2.33,1.66,11,4.32,11,5.65s-3,1.67-5.32,1-8.66-3-10-3.33-3.66-.66-3.66-.66" fill="#bababa" stroke="#263238" stroke-linecap="round" stroke-linejoin="round" style="transform-origin:437.83px 395.052px"/>
<path class="animable" d="M426,394.29s5.33-.4,7.66.59,13,3.66,10.65,4.66-3,1.33-4.33,1.33-8.32-2.33-8.32-2.33-5,1.67-8.32,1" fill="#bababa" stroke="#263238" stroke-linecap="round" stroke-linejoin="round" style="transform-origin:433.993px 397.54px"/>
<path class="animable" d="M438.78,303.43c-.28-.45-.56-1-.86-1.51-1.15.31-2.29.65-3.4,1-13.08,4.36-17.19,14.12-18.18,22.5C423.69,335,454.22,379,461.5,378.5c8-.5,10-13.5,6.5-22S442.78,309.93,438.78,303.43Z" fill="#bababa" stroke="#263238" stroke-linecap="round" stroke-linejoin="round" style="transform-origin:442.997px 340.212px"/>
<path class="animable" d="m448.9 367.86a21.21 21.21 0 0 1-4.9-13.58c0-8.36 2.44-33.1 2.44-40.76a55.29 55.29 0 0 0-2.79-15.68s2.44-5.57 7.31-7.66 7.67 3.48 10.8 16 9.09 32.82 8.39 48.82 0.7 19.51-4.87 22.65" fill="#bababa" stroke="#263238" stroke-linecap="round" stroke-linejoin="round" style="transform-origin:456.928px 333.7px"/>
<path class="animable" d="M455.56,301s-3.07,2.37-7.86.26-4.26-4.62-4.26-4.62-2.83-1.4-5.45-2.35a14.11,14.11,0,0,1-5-3.71l-7.54-2.71c-2.95-1.06-8.24-1.81-9.22-5.25s4.63-2.57,7.58-1.51,7,2.13,8.19-.14-3.19-6.55-3.19-6.55,6.1-2.13,10.22-.37,12.51,8.63,13.65,9.87" fill="#bababa" stroke="#263238" stroke-linecap="round" stroke-linejoin="round" style="transform-origin:435.838px 287.744px"/>
<path class="animable" d="M430.16,274.86s.24-6.85,6.63-3,17,9.22,17.91,9.91,3.44,5.87,4,11.48.56,6.5.56,6.5" fill="#bababa" stroke="#263238" stroke-linecap="round" stroke-linejoin="round" style="transform-origin:444.71px 285.218px"/>
<path class="animable" d="M435.28,270.92s-3.36-2-5.62-.86-8.6,5.39-7.82,8.37,6.88-3.7,8.32-3.57,4.5.85,4.5.85Z" fill="#bababa" stroke="#263238" stroke-linecap="round" stroke-linejoin="round" style="transform-origin:428.527px 274.453px"/>
<path class="animable" d="M446.05,276s-4.87-6-7.5-6.94-10,7.21-10.85,9.6.33,3.2,1.56,2.87,4.91-4.4,4.91-4.4l2.5-1.8,1.85,1.05Z" fill="#bababa" stroke="#263238" stroke-linecap="round" stroke-linejoin="round" style="transform-origin:436.731px 275.293px"/>
<path class="animable" d="m450.19 277.83s-3-4.95-5-5.66-7.86 3.34-9.95 6.06-5.25 4.29-3.52 5.68 5.85-2.91 7.66-3.8 6.35-1.19 6.35-1.19 1.88 2.99 4.46-1.09z" fill="#bababa" stroke="#263238" stroke-linecap="round" stroke-linejoin="round" style="transform-origin:440.706px 278.136px"/>
<path class="animable" d="M457.08,286.48s-3.57-8.61-5.29-10-7.7,1.85-9.55,3.89-5.85,6-4.13,7.38,6.59-4.95,6.59-4.95l3.24-.77,2,3.8" fill="#bababa" stroke="#263238" stroke-linecap="round" stroke-linejoin="round" style="transform-origin:447.385px 282.045px"/>
<path class="animable" d="M369.33,353.66c.93-.38,1.9-.79,2.88-1.23" fill="none" stroke="#263238" stroke-linecap="round" stroke-linejoin="round" style="transform-origin:370.77px 353.045px"/>
<path class="animable" d="m347.6 357.2s6.76 1.63 18.43-2.32" fill="none" stroke="#263238" stroke-linecap="round" stroke-linejoin="round" style="transform-origin:356.815px 356.207px"/>
<polyline class="animable" points="410.46 296.77 410.09 305.95 412.67 319.91" fill="none" stroke="#263238" stroke-linecap="round" stroke-linejoin="round" style="transform-origin:411.38px 308.34px"/>
<path class="animable" d="m376.57 156.9s-23-2.23-40.25 7.83-32.58 35.2-34.5 51.4 3.2 12.29 3.2 12.29 2.55 8.94 5.11 10.62 7-1.68 7-1.68l7.69 10.64h7l6.39 2.79a12.09 12.09 0 0 0 9.58 0s2.56 2.23 8.31 2.23 6.39-1.67 6.39-1.67 30 4.47 37.05 2.79a29.16 29.16 0 0 0 11.5-5.59s-0.64 2.8 4.47 1.12 8.31-8.38 8.31-8.38 0.64 6.15 5.11 3.35 6.39-12.85 6.39-12.85 3.19 3.91 5.75 1.68 5.75-26.26-4.47-49.73-41.5-31.87-60.03-26.84z" fill="#263238" stroke="#263238" stroke-linecap="round" stroke-linejoin="round" style="transform-origin:372.514px 205.008px"/>
<path class="animable" d="M358.54,244.75A23,23,0,0,1,360,255.09c-.49,5.91-4.92,8.37.5,16.73s13.78,13.29,22.64,9.85,9.35-14.77,9.35-19.2V249.18Z" fill="#bababa" stroke="#263238" stroke-linecap="round" stroke-linejoin="round" style="transform-origin:375.16px 263.764px"/>
<path class="animable" d="m392.5 253.6v-0.26l-23-7.16-10.92-1.43a23 23 0 0 1 1.42 10.34c-0.31 3.76-2.22 6.13-2.16 9.52a25.62 25.62 0 0 0 11.22 1.32c17.25-1.44 22.65-10.76 23.44-12.33z" fill="#263238" stroke="#263238" stroke-linecap="round" stroke-linejoin="round" style="transform-origin:375.169px 255.411px"/>
<path class="animable" d="M378.35,189s-18.51,15.42-22.62,19a66.49,66.49,0,0,1-5.66,4.63,107.08,107.08,0,0,0,2.06,27.26c1.17,5.79,9.53,12.29,13.64,16,15,13.7,30.91-.06,36.24-16.05,2.57-7.71,1-32.39-1-38S378.35,189,378.35,189Z" fill="#bababa" stroke="#263238" stroke-linecap="round" stroke-linejoin="round" style="transform-origin:376.636px 225.248px"/>
<path class="animable" d="m378.35 189s-6.1 11.85-12.35 17-15.8 12.86-14.33 11 7-7 11.39-13.23a98.35 98.35 0 0 0 7-11.39" fill="#263238" stroke="#263238" stroke-linecap="round" stroke-linejoin="round" style="transform-origin:364.934px 203.142px"/>
<path class="animable" d="m371 217.94c0 1.69-0.8 3.05-1.78 3.05s-1.78-1.36-1.78-3.05 0.8-3 1.78-3 1.78 1.32 1.78 3z" fill="#263238" style="transform-origin:369.22px 217.965px"/>
<path class="animable" d="m392.1 217.94c0 1.69-0.8 3.05-1.78 3.05s-1.78-1.36-1.78-3.05 0.8-3 1.78-3 1.78 1.32 1.78 3z" fill="#263238" style="transform-origin:390.32px 217.965px"/>
<path class="animable" d="m385.24 224s1.78 3.81 0 6.09-4.57 3.31-6.6 2" fill="none" stroke="#263238" stroke-linecap="round" stroke-linejoin="round" style="transform-origin:382.336px 228.333px"/>
<path class="animable" d="m371 237.75s3.05 2.8 9.9 2.8 9.65-4.57 9.65-4.57" fill="none" stroke="#263238" stroke-linecap="round" stroke-linejoin="round" style="transform-origin:380.775px 238.265px"/>
<path class="animable" d="m361.62 211.34s5.08-4.06 11.43-3.05" fill="none" stroke="#263238" stroke-linecap="round" stroke-linejoin="round" stroke-width="2px" style="transform-origin:367.335px 209.734px"/>
<path class="animable" d="M386,207.53s5.59-.51,8.89,3.05" fill="none" stroke="#263238" stroke-linecap="round" stroke-linejoin="round" stroke-width="2px" style="transform-origin:390.445px 209.042px"/>
<path class="animable" d="M344.23,395.91s5.74,0,8,1.44,6.59,7.46,6.31,8.32-.86,1.14-2.3.86-6.31-4.59-7.46-5.45-5.73-4-5.73-4Z" fill="#fff" stroke="#263238" stroke-linecap="round" stroke-linejoin="round" style="transform-origin:350.801px 401.272px"/>
<path class="animable" d="M216.5,258s14,9,21,23,16,36.5,18,39.5S270,342,270,342l45.5,55s28-3.5,31-.5,10,10.5,9.5,13-6,1.5-7.5,1.5a48.47,48.47,0,0,0-10,1c-5,1-9.5.5-15.5.5s-8.5,0-11-.5-9-5.5-9-5.5-30.5-23.5-37.5-29-39.5-33-39.5-33-3.5-48.5-4.5-55S212,258,212,258Z" fill="#fff" stroke="#263238" stroke-linecap="round" stroke-linejoin="round" style="transform-origin:284.013px 335.312px"/>
<path class="animable" d="M270,342s-12.5-18.5-14.5-21.5-11-25.5-18-39.5-21-23-21-23H212s8.5,25,9.5,31.5,4.5,55,4.5,55,32.5,27.5,39.5,33c.91.72,2.23,1.74,3.82,3,1-6.93,4.37-16.27,14.55-21.72Z" fill="#9abd3f" stroke="#263238" stroke-linecap="round" stroke-linejoin="round" style="transform-origin:247.935px 319.25px"/>
<path class="animable" d="M324.16,403.66s1.72.86,5.16,2.29,7.46.86,9.46,1.72,2.87,3.73-2.86,4.59" fill="none" stroke="#263238" stroke-linecap="round" stroke-linejoin="round" style="transform-origin:332.229px 407.96px"/>
<path class="animable" d="M330.47,399.64s5.73.29,6.88,1.44,10,7.45,9.18,8.6a2.71,2.71,0,0,1-2,1.15" fill="none" stroke="#263238" stroke-linecap="round" stroke-linejoin="round" style="transform-origin:338.527px 405.235px"/>
<path class="animable" d="M335.92,397.63s7.17-.57,10,2.87,8,8.89,7.46,9.76a1.84,1.84,0,0,1-1.43.86" fill="none" stroke="#263238" stroke-linecap="round" stroke-linejoin="round" style="transform-origin:344.67px 404.357px"/>
<path class="animable" d="M104.65,434.5l106-17.84s2-7.49,8-22.74,16-53.56,15.26-78-9.94-51.08-16-58.53-32.63-12.41-32.63-12.41-5.67,0-16.67,6-27,20.93-36.54,37.6-24.47,82.29-24.83,86.9c-.32,4.2-8.58,50.71-10.06,59Z" fill="#263238" stroke="#263238" stroke-linecap="round" stroke-linejoin="round" style="transform-origin:165.564px 339.74px"/>
<path class="animable" d="m221.57 264.09 9.22-10.64s14.19 1.07 19.87 1.07 10.64-0.71 10.64-6.74-3.19-26.61-3.19-26.61 6.38-1.41 8.86-4.25-1.06-6.39-4.25-10.64-6-8.87-6.39-13.84-8.87-21.28-8.87-21.28 1.42-2.48-3.19-7.8-28.37-6.39-43.63 1.06-18.8 18.45-18.8 30.51 6.74 29.07 6.74 29.07-4.61 18.45-5 19.51-3.9 3.55-3.9 3.55 22.7 46.82 28 54.27 6.74 12.06 8.16 6.74 1.77-40.79 1.77-40.79z" fill="#fff" stroke="#263238" stroke-linecap="round" stroke-linejoin="round" style="transform-origin:223.742px 234.735px"/>
<path class="animable" d="m251 202.15c0.08 2-0.41 3.74-1.1 3.77s-1.3-1.62-1.38-3.68 0.41-3.74 1.1-3.76 1.31 1.61 1.38 3.67z" fill="#263238" style="transform-origin:249.76px 202.2px"/>
<path class="animable" d="m241.08 195.28s3.19-5.32 11.35-2.13" fill="none" stroke="#263238" stroke-linecap="round" stroke-linejoin="round" stroke-width="2px" style="transform-origin:246.755px 193.706px"/>
<path class="animable" d="m261.3 247.78c0-6-3.19-26.61-3.19-26.61s-3.91-2.12-11.35-0.35-9.58 13.83-11 15.25-10.64-7.07-14.19-12.77-6-15.61-6.38-21.28 13.12-8.51 15.25-13.83-7.8-11-4.26-14.55 10.64-2.13 14.19-1.42a12.48 12.48 0 0 0 7.09-1.06s1.42-2.48-3.19-7.8-28.37-6.39-43.63 1.06-18.8 18.45-18.8 30.51c0 9.77 4.43 22.8 6.11 27.39 1.36 0.5 3.58 1.22 4.53 1 1.42-0.35 2.49-4.61 3.2-8.87s11-9.22 11-9.22 1.78 12.77 1.78 15.25-1.42 14.9 5.32 20.93 17 12.06 17 12.06 14.19 1.07 19.87 1.07 10.65-0.73 10.65-6.76z" fill="#263238" stroke="#263238" stroke-linecap="round" stroke-linejoin="round" style="transform-origin:221.57px 206.821px"/>
<path class="animable" d="m208.8 214.08s-2.84-17-7.8-16.32-7.81 7.1-5.32 15.26 7.45 7.44 10.28 6.74" fill="#fff" stroke="#263238" stroke-linecap="round" stroke-linejoin="round" style="transform-origin:201.782px 208.949px"/>
<path class="animable" d="m243.56 227.2s2.84 3.55 10.29 3.55" fill="none" stroke="#fff" stroke-linecap="round" stroke-linejoin="round" style="transform-origin:248.705px 228.975px"/>
<path class="animable" d="m334.5 299.5s-10-12-13-9 5 10.5 5 10.5z" fill="#fff" stroke="#263238" stroke-linecap="round" stroke-linejoin="round" style="transform-origin:327.663px 295.509px"/>
<path class="animable" d="M336.63,296.83S330,281.5,328.5,286s2,14.5,2,14.5Z" fill="#fff" stroke="#263238" stroke-linecap="round" stroke-linejoin="round" style="transform-origin:332.378px 292.836px"/>
<path class="animable" d="M198,305s-14.5-19.5-27.5-24-27,2-37,26-3,53,12.5,57,33-5.5,33-5.5,57.5,53,65,53.5,32-41,38-59.5,13-33,15-35.5,18.5-5.5,26.5-6a16.72,16.72,0,0,0,14-8.5c1.5-3,6.5-15.5,7-17.5s-3-2-5,1.5-5.5,9.5-7,10-21.5.5-21.5.5l-4-5s7.5-2.5,9-5,3.5-9.5,0-7.5-9,6-9,6-7,1.5-11,7-9.5,20-9.5,20-36,39-38.5,41-5.5,5-5.5,5Z" fill="#fff" stroke="#263238" stroke-linecap="round" stroke-linejoin="round" style="transform-origin:236.696px 345.575px"/>
<path class="animable" d="M256.87,344.35c-4.63,4.91-8.15,8.57-8.87,9.15-2.5,2-5.5,5-5.5,5L198,305s-14.5-19.5-27.5-24-27,2-37,26-3,53,12.5,57,33-5.5,33-5.5,57.5,53,65,53.5c6.49.43,25.72-30.6,34.66-50.95Z" fill="#9abd3f" stroke="#263238" stroke-linecap="round" stroke-linejoin="round" style="transform-origin:203.752px 345.837px"/>
<line class="animable" x1="242.5" x2="228" y1="358.5" y2="375" fill="none" stroke="#263238" stroke-linecap="round" stroke-linejoin="round" style="transform-origin:235.25px 366.75px"/>
<line class="animable" x1="153.8" x2="149.5" y1="338.42" y2="335" fill="#fff" stroke="#263238" stroke-linecap="round" stroke-linejoin="round" style="transform-origin:151.65px 336.71px"/>
<line class="animable" x1="179" x2="158.11" y1="358.5" y2="341.85" fill="#fff" stroke="#263238" stroke-linecap="round" stroke-linejoin="round" style="transform-origin:168.555px 350.175px"/>
</g>
<g class="animable" stroke="#263238" stroke-linecap="round" stroke-linejoin="round" style="transform-origin:376.27px 389.475px">
<polygon class="animable" points="419.25 423.99 399.93 423.99 395.79 388.3 423.39 388.3" fill="#263238" style="transform-origin:409.59px 406.145px"/>
<rect class="animable" x="394.94" y="381.81" width="29.3" height="7.23" fill="#fff" style="transform-origin:409.59px 385.425px"/>
<rect class="animable" x="393.3" y="384.63" width="32.59" height="7.23" fill="#fff" style="transform-origin:409.595px 388.245px"/>
<polygon class="animable" points="420.67 411.76 422.04 400 397.15 400 398.51 411.76" fill="#fff" style="transform-origin:409.595px 405.88px"/>
<polygon class="animable" points="298.87 420.83 279.55 420.83 275.4 385.14 303.01 385.14" fill="#263238" style="transform-origin:289.205px 402.985px"/>
<rect class="animable" x="274.56" y="378.66" width="29.3" height="7.23" fill="#fff" style="transform-origin:289.21px 382.275px"/>
<rect class="animable" x="272.91" y="381.48" width="32.59" height="7.23" fill="#fff" style="transform-origin:289.205px 385.095px"/>
<polygon class="animable" points="300.29 408.6 301.65 396.85 276.76 396.85 278.13 408.6" fill="#fff" style="transform-origin:289.205px 402.725px"/>
<polygon class="animable" points="473.34 395.01 454.99 395.01 451.06 361.12 477.27 361.12" fill="#263238" style="transform-origin:464.165px 378.065px"/>
<rect class="animable" x="450.25" y="354.96" width="27.82" height="6.87" fill="#fff" style="transform-origin:464.16px 358.395px"/>
<rect class="animable" x="448.69" y="357.64" width="30.94" height="6.87" fill="#fff" style="transform-origin:464.16px 361.075px"/>
<polygon class="animable" points="474.68 383.39 475.98 372.23 452.35 372.23 453.64 383.39" fill="#fff" style="transform-origin:464.165px 377.81px"/>
</g>
<g class="animable" style="transform-origin:383.195px 59.8655px">
<path class="animable" d="m373.74 56.37h18.91a3.32 3.32 0 0 1 3.35 3.32v17.31h-25.58v-17.31a3.32 3.32 0 0 1 3.32-3.32z" fill="#263238" style="transform-origin:383.21px 66.6849px"/>
<circle class="animable" cx="382.87" cy="96.1" r="11.9" fill="#fff" stroke="#ababab" stroke-linecap="round" stroke-miterlimit="10" style="transform-origin:382.87px 96.1px;transform:rotate(-77.07deg)"/>
<polygon class="animable" points="433.8 96.66 332.59 96.66 370.55 75.98 395.76 75.98" fill="#263238" style="transform-origin:383.195px 86.32px"/>
<rect class="animable" x="381.06" y="9.37" width="4.28" height="49.84" fill="#263238" style="transform-origin:383.2px 34.29px"/>
</g>
</svg>
